<svg width="40" height="40" viewBox="0 0 40 40" fill="none" xmlns="http://www.w3.org/2000/svg">
<g id="icon 40" clip-path="url(#clip0_571_12748)">
<path id="Vector" d="M21.3422 17.1225C22.3887 17.1225 23.237 16.2742 23.237 15.2277C23.237 14.1813 22.3887 13.333 21.3422 13.333C20.2958 13.333 19.4475 14.1813 19.4475 15.2277C19.4475 16.2742 20.2958 17.1225 21.3422 17.1225Z" stroke="#8BA698" stroke-width="2" stroke-linecap="round" stroke-linejoin="round"/>
<path id="Vector_2" d="M19.3336 28.5337V24.4428L18.5002 23.6246V20.3519C18.5002 20.1349 18.588 19.9268 18.7443 19.7733C18.9006 19.6199 19.1126 19.5337 19.3336 19.5337H22.6669C22.8879 19.5337 23.0999 19.6199 23.2562 19.7733C23.4124 19.9268 23.5002 20.1349 23.5002 20.3519V23.6246L22.6669 24.4428V28.5337" stroke="#8BA698" stroke-width="2" stroke-linecap="round" stroke-linejoin="round"/>
<path id="Union" d="M8.29132 21.9323L8.87558 21.2705L8.29132 20.6087C7.48251 19.6925 7 18.5123 7 17.2255C7 14.3659 9.40901 11.9896 12.4535 11.9896C13.1493 11.9896 13.8121 12.1143 14.4207 12.3404L15.6024 12.7795L15.761 11.5288C16.086 8.96597 18.3618 6.93341 21.1742 6.93341C23.9516 6.93341 26.2065 8.91624 26.5745 11.4341L26.7438 12.5925L27.8615 12.2441C28.3907 12.0792 28.9568 11.9896 29.5468 11.9896C32.5912 11.9896 35.0002 14.3658 35.0002 17.2255C35.0002 18.5123 34.5177 19.6925 33.7089 20.6087L33.1246 21.2705L33.7089 21.9323C34.5177 22.8485 35.0002 24.0287 35.0002 25.3155C35.0002 28.1752 32.5912 30.5514 29.5468 30.5514C28.9165 30.5514 28.3135 30.4492 27.7534 30.262L26.736 29.922L26.4681 30.9607C25.8849 33.222 23.7527 34.9334 21.1742 34.9334C18.5588 34.9334 16.4032 33.1729 15.8563 30.8638L15.5906 29.7419L14.5175 30.1636C13.8826 30.4131 13.1863 30.5514 12.4535 30.5514C9.40901 30.5514 7 28.1751 7 25.3154C7 24.0287 7.48251 22.8485 8.29132 21.9323Z" stroke="#8BA698" stroke-width="2"/>
</g>
<defs>
<clipPath id="clip0_571_12748">
<rect width="40" height="40" fill="white"/>
</clipPath>
</defs>
</svg>
