<svg width="40" height="40" viewBox="0 0 40 40" fill="none" xmlns="http://www.w3.org/2000/svg">
<g clip-path="url(#clip0_571_12718)">
<path d="M11.737 13.3158C13.4811 13.3158 14.8949 11.902 14.8949 10.1579C14.8949 8.41384 13.4811 7 11.737 7C9.99294 7 8.5791 8.41384 8.5791 10.1579C8.5791 11.902 9.99294 13.3158 11.737 13.3158Z" stroke="#8BA698" stroke-width="2" stroke-linecap="round" stroke-linejoin="round"/>
<path d="M8.57895 34V26.1053L7 24.5263V18.2105C7 17.7918 7.16635 17.3902 7.46246 17.0941C7.75857 16.7979 8.16018 16.6316 8.57895 16.6316H14.8947C15.3135 16.6316 15.7151 16.7979 16.0112 17.0941C16.3073 17.3902 16.4737 17.7918 16.4737 18.2105V24.5263L14.8947 26.1053V34" stroke="#8BA698" stroke-width="2" stroke-linecap="round" stroke-linejoin="round"/>
<path d="M26.3156 13.3158C28.0597 13.3158 29.4735 11.902 29.4735 10.1579C29.4735 8.41384 28.0597 7 26.3156 7C24.5716 7 23.1577 8.41384 23.1577 10.1579C23.1577 11.902 24.5716 13.3158 26.3156 13.3158Z" stroke="#8BA698" stroke-width="2" stroke-linecap="round" stroke-linejoin="round"/>
<path d="M23.1579 34V27.6842H20L23.1579 18.2105C23.1579 17.7918 23.3242 17.3902 23.6204 17.0941C23.9165 16.7979 24.3181 16.6316 24.7368 16.6316H27.8947C28.3135 16.6316 28.7151 16.7979 29.0112 17.0941C29.3073 17.3902 29.4737 17.7918 29.4737 18.2105L32.6316 27.6842H29.4737V34" stroke="#8BA698" stroke-width="2" stroke-linecap="round" stroke-linejoin="round"/>
</g>
<defs>
<clipPath id="clip0_571_12718">
<rect width="40" height="40" fill="white"/>
</clipPath>
</defs>
</svg>
