<svg width="40" height="40" viewBox="0 0 40 40" fill="none" xmlns="http://www.w3.org/2000/svg">
<g clip-path="url(#clip0_571_12776)">
<path d="M10.8157 15.2524C12.1964 15.2524 13.3157 14.1332 13.3157 12.7524C13.3157 11.3717 12.1964 10.2524 10.8157 10.2524C9.43496 10.2524 8.31567 11.3717 8.31567 12.7524C8.31567 14.1332 9.43496 15.2524 10.8157 15.2524Z" stroke="#8BA698" stroke-width="2" stroke-linecap="round" stroke-linejoin="round"/>
<path d="M8.921 31.4524V23.7155L7.97363 22.7682V18.9787C7.97363 18.7274 8.07344 18.4865 8.25111 18.3088C8.42878 18.1311 8.66974 18.0313 8.921 18.0313H12.7105C12.9617 18.0313 13.2027 18.1311 13.3804 18.3088C13.558 18.4865 13.6578 18.7274 13.6578 18.9787V22.7682L12.7105 23.7155V31.4524" stroke="#8BA698" stroke-width="2" stroke-linecap="round" stroke-linejoin="round"/>
<path d="M20.7896 15.2524C22.1703 15.2524 23.2896 14.1332 23.2896 12.7524C23.2896 11.3717 22.1703 10.2524 20.7896 10.2524C19.4088 10.2524 18.2896 11.3717 18.2896 12.7524C18.2896 14.1332 19.4088 15.2524 20.7896 15.2524Z" stroke="#8BA698" stroke-width="2" stroke-linecap="round" stroke-linejoin="round"/>
<path d="M18.8947 31.4524V24.6629H17L18.8947 18.9787C18.8947 18.7274 18.9945 18.4865 19.1722 18.3088C19.3499 18.1311 19.5908 18.0313 19.8421 18.0313H21.7368C21.9881 18.0313 22.2291 18.1311 22.4067 18.3088C22.5844 18.4865 22.6842 18.7274 22.6842 18.9787L24.5789 24.6629H22.6842V31.4524" stroke="#8BA698" stroke-width="2" stroke-linecap="round" stroke-linejoin="round"/>
<path d="M30.8157 15.2524C32.1964 15.2524 33.3157 14.1332 33.3157 12.7524C33.3157 11.3717 32.1964 10.2524 30.8157 10.2524C29.435 10.2524 28.3157 11.3717 28.3157 12.7524C28.3157 14.1332 29.435 15.2524 30.8157 15.2524Z" stroke="#8BA698" stroke-width="2" stroke-linecap="round" stroke-linejoin="round"/>
<path d="M28.921 31.4524V23.7155L27.9736 22.7682V18.9787C27.9736 18.7274 28.0734 18.4865 28.2511 18.3088C28.4288 18.1311 28.6697 18.0313 28.921 18.0313H32.7105C32.9617 18.0313 33.2027 18.1311 33.3804 18.3088C33.558 18.4865 33.6578 18.7274 33.6578 18.9787V22.7682L32.7105 23.7155V31.4524" stroke="#8BA698" stroke-width="2" stroke-linecap="round" stroke-linejoin="round"/>
</g>
<defs>
<clipPath id="clip0_571_12776">
<rect width="40" height="40" fill="white"/>
</clipPath>
</defs>
</svg>
