<svg width="40" height="40" viewBox="0 0 40 40" fill="none" xmlns="http://www.w3.org/2000/svg">
<g id="Tabler" clip-path="url(#clip0_571_12664)">
<path id="Vector" d="M26.6666 8.33334L31.6666 13.3333L28.3333 15L35 21.6667L30 23.3333L36.6666 30H21.6666" stroke="#8BA698" stroke-width="2" stroke-linecap="round" stroke-linejoin="round"/>
<path id="Vector_2" d="M25 35V30" stroke="#8BA698" stroke-width="2" stroke-linecap="round" stroke-linejoin="round"/>
<path id="Vector_3" d="M13.3333 21.6667L10 18.3333" stroke="#8BA698" stroke-width="2" stroke-linecap="round" stroke-linejoin="round"/>
<path id="Vector_4" d="M13.3334 20L16.6667 16.6667" stroke="#8BA698" stroke-width="2" stroke-linecap="round" stroke-linejoin="round"/>
<path id="Vector_5" d="M13.3334 35V13.3333" stroke="#8BA698" stroke-width="2" stroke-linecap="round" stroke-linejoin="round"/>
<path id="Vector_6" d="M9.70661 26.6583C8.97739 26.6156 8.26639 26.4137 7.62361 26.0667C6.98084 25.7197 6.4219 25.236 5.98611 24.6498C5.55033 24.0636 5.24829 23.389 5.10123 22.6735C4.95418 21.958 4.96569 21.2189 5.13494 20.5083C4.53008 20.0056 4.05245 19.3671 3.74092 18.6449C3.42939 17.9227 3.29276 17.1371 3.34213 16.3521C3.39151 15.5671 3.6255 14.8049 4.02507 14.1274C4.42465 13.4499 4.97851 12.8763 5.64161 12.4533C5.06056 11.4211 4.86486 10.2161 5.08938 9.05301C5.31389 7.88994 5.94404 6.84435 6.86755 6.10255C7.79105 5.36074 8.94793 4.9709 10.1321 5.00248C11.3162 5.03406 12.4506 5.48502 13.3333 6.27499C14.2161 5.48627 15.3502 5.03638 16.5337 5.00541C17.7171 4.97444 18.8732 5.3644 19.7961 6.10588C20.719 6.84735 21.3488 7.89224 21.5735 9.05458C21.7983 10.2169 21.6033 11.4213 21.0233 12.4533C21.6868 12.876 22.2411 13.4494 22.641 14.1268C23.041 14.8042 23.2752 15.5665 23.3248 16.3516C23.3743 17.1367 23.2377 17.9225 22.9261 18.6448C22.6145 19.3671 22.1367 20.0056 21.5316 20.5083C21.7066 21.243 21.7128 22.0077 21.5499 22.7452C21.387 23.4826 21.0592 24.1735 20.5911 24.7661C20.1229 25.3587 19.5266 25.8376 18.8469 26.1667C18.1672 26.4959 17.4218 26.6668 16.6666 26.6667H9.99994L9.70661 26.6583Z" stroke="#8BA698" stroke-width="2" stroke-linecap="round" stroke-linejoin="round"/>
</g>
<defs>
<clipPath id="clip0_571_12664">
<rect width="40" height="40" fill="white"/>
</clipPath>
</defs>
</svg>
