<svg width="32" height="32" viewBox="0 0 32 32" fill="none" xmlns="http://www.w3.org/2000/svg">
<g id="Tabler">
<path id="Vector" d="M27.4667 15.4667V7.46665C27.4667 6.75941 27.1857 6.08113 26.6856 5.58104C26.1855 5.08094 25.5073 4.79999 24.8 4.79999H15.4667" stroke="#8BA698" stroke-width="2" stroke-linecap="round" stroke-linejoin="round"/>
<path id="Vector_2" d="M6.1333 24.8H28.8" stroke="#8BA698" stroke-width="2" stroke-linecap="round" stroke-linejoin="round"/>
<path id="Vector_3" d="M24.8 20.8L28.8 24.8L24.8 28.8" stroke="#8BA698" stroke-width="2" stroke-linecap="round" stroke-linejoin="round"/>
<path id="Vector_4" d="M6.1333 24.8V2.13333" stroke="#8BA698" stroke-width="2" stroke-linecap="round" stroke-linejoin="round"/>
<path id="Vector_5" d="M2.1333 6.13333L6.1333 2.13333L10.1333 6.13333" stroke="#8BA698" stroke-width="2" stroke-linecap="round" stroke-linejoin="round"/>
<path id="Vector_6" d="M16.9995 17.0003L15.333 15.4003" stroke="#8BA698" stroke-width="2" stroke-linecap="round" stroke-linejoin="round"/>
<path id="Vector_7" d="M16.9995 16.2004L18.666 14.6003" stroke="#8BA698" stroke-width="2" stroke-linecap="round" stroke-linejoin="round"/>
<path id="Vector_8" d="M16.9995 21.0005V13.0002" stroke="#8BA698" stroke-width="2" stroke-linecap="round" stroke-linejoin="round"/>
<path id="Vector_9" d="M15.1863 19.3965C14.8217 19.376 14.4663 19.2791 14.1449 19.1125C13.8236 18.9459 13.5441 18.7138 13.3263 18.4324C13.1084 18.151 12.9574 17.8271 12.8839 17.4837C12.8104 17.1402 12.8161 16.7855 12.9007 16.4444C12.5983 16.2031 12.3596 15.8966 12.2038 15.5499C12.0481 15.2032 11.9798 14.8262 12.0044 14.4493C12.0291 14.0725 12.1461 13.7067 12.3459 13.3815C12.5456 13.0563 12.8225 12.7809 13.154 12.5779C12.8635 12.0824 12.7657 11.504 12.878 10.9457C12.9902 10.3874 13.3052 9.88547 13.7669 9.52939C14.2286 9.17331 14.807 8.98618 15.399 9.00134C15.991 9.0165 16.5581 9.23297 16.9994 9.61217C17.4408 9.23357 18.0077 9.01761 18.5994 9.00275C19.1911 8.98788 19.769 9.17507 20.2304 9.53099C20.6918 9.88691 21.0067 10.3885 21.119 10.9464C21.2314 11.5044 21.1339 12.0825 20.8439 12.5779C21.1756 12.7807 21.4528 13.056 21.6527 13.3811C21.8527 13.7063 21.9698 14.0722 21.9946 14.4491C22.0193 14.826 21.951 15.2031 21.7953 15.5499C21.6395 15.8966 21.4006 16.2031 21.0981 16.4444C21.1855 16.797 21.1887 17.1641 21.1072 17.5181C21.0258 17.8721 20.8619 18.2037 20.6279 18.4882C20.3938 18.7727 20.0957 19.0025 19.7559 19.1605C19.4161 19.3185 19.0434 19.4006 18.6659 19.4005H15.3329L15.1863 19.3965Z" stroke="#8BA698" stroke-width="2" stroke-linecap="round" stroke-linejoin="round"/>
</g>
</svg>
