<svg width="30" height="32" viewBox="0 0 30 32" fill="none" xmlns="http://www.w3.org/2000/svg">
<g id="Frame 111">
<path id="Vector" d="M3.842 18.5888C4.88844 18.5888 5.73674 17.7405 5.73674 16.6941C5.73674 15.6476 4.88844 14.7993 3.842 14.7993C2.79557 14.7993 1.94727 15.6476 1.94727 16.6941C1.94727 17.7405 2.79557 18.5888 3.842 18.5888Z" stroke="#8BA698" stroke-width="2" stroke-linecap="round" stroke-linejoin="round"/>
<path id="Vector_2" d="M1.94737 30.9992V26.2623L1 25.315V21.5255C1 21.2742 1.09981 21.0333 1.27748 20.8556C1.45514 20.6779 1.69611 20.5781 1.94737 20.5781H5.73684C5.9881 20.5781 6.22907 20.6779 6.40673 20.8556C6.5844 21.0333 6.68421 21.2742 6.68421 21.5255V25.315L5.73684 26.2623V30.9992" stroke="#8BA698" stroke-width="2" stroke-linecap="round" stroke-linejoin="round"/>
<path id="Vector_3" d="M18.3333 17.6659L15 14.3325" stroke="#8BA698" stroke-width="2" stroke-linecap="round" stroke-linejoin="round"/>
<path id="Vector_4" d="M18.3335 15.9993L21.6668 12.666" stroke="#8BA698" stroke-width="2" stroke-linecap="round" stroke-linejoin="round"/>
<path id="Vector_5" d="M18.3335 30.9992V9.33252" stroke="#8BA698" stroke-width="2" stroke-linecap="round" stroke-linejoin="round"/>
<path id="Vector_6" d="M14.7069 22.6576C13.9776 22.6149 13.2666 22.413 12.6239 22.066C11.9811 21.719 11.4221 21.2353 10.9864 20.6491C10.5506 20.0629 10.2485 19.3883 10.1015 18.6728C9.95442 17.9572 9.96593 17.2182 10.1352 16.5076C9.53032 16.0049 9.0527 15.3664 8.74117 14.6442C8.42964 13.922 8.293 13.1364 8.34238 12.3514C8.39175 11.5664 8.62575 10.8042 9.02532 10.1267C9.42489 9.44923 9.97876 8.87565 10.6419 8.45263C10.0608 7.42038 9.86511 6.21538 10.0896 5.05231C10.3141 3.88924 10.9443 2.84365 11.8678 2.10185C12.7913 1.36004 13.9482 0.970197 15.1323 1.00178C16.3164 1.03336 17.4509 1.48431 18.3335 2.27429C19.2164 1.48556 20.3504 1.03568 21.5339 1.00471C22.7174 0.973742 23.8734 1.3637 24.7963 2.10517C25.7192 2.84665 26.3491 3.89154 26.5738 5.05388C26.7985 6.21621 26.6035 7.42058 26.0235 8.45263C26.687 8.87527 27.2413 9.44865 27.6413 10.1261C28.0412 10.8035 28.2755 11.5658 28.325 12.3509C28.3746 13.136 28.238 13.9218 27.9264 14.6441C27.6148 15.3664 27.137 16.0049 26.5319 16.5076C26.7068 17.2423 26.7131 18.007 26.5502 18.7445C26.3873 19.4819 26.0595 20.1728 25.5913 20.7654C25.1232 21.358 24.5269 21.8369 23.8472 22.166C23.1675 22.4952 22.4221 22.6661 21.6669 22.666H15.0002L14.7069 22.6576Z" stroke="#8BA698" stroke-width="2" stroke-linecap="round" stroke-linejoin="round"/>
</g>
</svg>
