<svg width="40" height="40" viewBox="0 0 40 40" fill="none" xmlns="http://www.w3.org/2000/svg">
<g clip-path="url(#clip0_571_12703)">
<path d="M8.842 22.5888C9.88844 22.5888 10.7367 21.7405 10.7367 20.6941C10.7367 19.6476 9.88844 18.7993 8.842 18.7993C7.79557 18.7993 6.94727 19.6476 6.94727 20.6941C6.94727 21.7405 7.79557 22.5888 8.842 22.5888Z" stroke="#8BA698" stroke-width="2" stroke-linecap="round" stroke-linejoin="round"/>
<path d="M6.94737 34.9993V30.2625L6 29.3151V25.5256C6 25.2744 6.09981 25.0334 6.27748 24.8557C6.45514 24.6781 6.69611 24.5782 6.94737 24.5782H10.7368C10.9881 24.5782 11.2291 24.6781 11.4067 24.8557C11.5844 25.0334 11.6842 25.2744 11.6842 25.5256V29.3151L10.7368 30.2625V34.9993" stroke="#8BA698" stroke-width="2" stroke-linecap="round" stroke-linejoin="round"/>
<path d="M23.3333 21.666L20 18.3326" stroke="#8BA698" stroke-width="2" stroke-linecap="round" stroke-linejoin="round"/>
<path d="M23.3335 19.9992L26.6668 16.6659" stroke="#8BA698" stroke-width="2" stroke-linecap="round" stroke-linejoin="round"/>
<path d="M23.3335 34.9993V13.3326" stroke="#8BA698" stroke-width="2" stroke-linecap="round" stroke-linejoin="round"/>
<path d="M19.7069 26.6576C18.9776 26.6149 18.2666 26.413 17.6239 26.066C16.9811 25.719 16.4221 25.2353 15.9864 24.6491C15.5506 24.0629 15.2485 23.3883 15.1015 22.6728C14.9544 21.9572 14.9659 21.2182 15.1352 20.5076C14.5303 20.0049 14.0527 19.3664 13.7412 18.6442C13.4296 17.922 13.293 17.1364 13.3424 16.3514C13.3918 15.5664 13.6257 14.8042 14.0253 14.1267C14.4249 13.4492 14.9788 12.8756 15.6419 12.4526C15.0608 11.4204 14.8651 10.2154 15.0896 9.05231C15.3141 7.88924 15.9443 6.84365 16.8678 6.10185C17.7913 5.36004 18.9482 4.9702 20.1323 5.00178C21.3164 5.03336 22.4509 5.48431 23.3335 6.27429C24.2164 5.48556 25.3504 5.03568 26.5339 5.00471C27.7174 4.97374 28.8734 5.3637 29.7963 6.10517C30.7192 6.84665 31.3491 7.89154 31.5738 9.05388C31.7985 10.2162 31.6035 11.4206 31.0235 12.4526C31.687 12.8753 32.2413 13.4486 32.6413 14.1261C33.0412 14.8035 33.2755 15.5658 33.325 16.3509C33.3746 17.136 33.238 17.9218 32.9264 18.6441C32.6148 19.3664 32.137 20.0049 31.5319 20.5076C31.7068 21.2423 31.7131 22.007 31.5502 22.7445C31.3873 23.4819 31.0595 24.1728 30.5913 24.7654C30.1232 25.358 29.5269 25.8369 28.8472 26.166C28.1675 26.4952 27.4221 26.6661 26.6669 26.666H20.0002L19.7069 26.6576Z" stroke="#8BA698" stroke-width="2" stroke-linecap="round" stroke-linejoin="round"/>
</g>
<defs>
<clipPath id="clip0_571_12703">
<rect width="40" height="40" fill="white"/>
</clipPath>
</defs>
</svg>
